<svg aria-hidden="true" style="position: absolute; width: 0; height: 0; overflow: hidden;" version="1.1" xmlns="http://www.w3.org/2000/svg" xmlns:xlink="http://www.w3.org/1999/xlink">
<defs>
<symbol id="icon-heard" viewBox="0 0 32 32">
<path stroke-linejoin="miter" stroke-linecap="butt" stroke-miterlimit="4" stroke-width="1" d="M15.992 31.188l-0.162-0.213 0-0-0.007-0.009c-3.020-3.785-6.374-7.253-10.016-10.356l-0-0c-1.792-1.526-3.225-3.484-4.178-5.716l0-0-0.003-0.006c-0.909-2.050-1.28-4.326-1.070-6.585 0.147-1.503 0.663-2.935 1.494-4.152s1.945-2.176 3.229-2.783l0 0 0.010-0.005c1.998-0.998 3.876-1.122 5.626-0.411l0.004 0.001c2.285 0.906 3.836 3.022 4.646 4.421l0.433 0.748 0.433-0.748c0.81-1.399 2.362-3.515 4.646-4.421l0-0c1.752-0.696 3.632-0.571 5.632 0.411l-0 0 0.007 0.003c1.286 0.607 2.402 1.567 3.234 2.787s1.347 2.655 1.492 4.16c0.21 2.259-0.16 4.536-1.070 6.586v-0l-0.003 0.006c-0.953 2.232-2.385 4.189-4.178 5.716-3.648 3.102-7.007 6.57-10.032 10.356-0 0-0 0-0 0.001l-0.168 0.209zM8.639 1.017v-0l-0.008 0c-1.906 0.058-3.725 0.837-5.133 2.188s-2.313 3.186-2.563 5.175h-0l-0.001 0.008c-0.453 4.129 1.599 8.852 5.075 11.804 3.449 2.947 6.648 6.215 9.559 9.763l0.387 0.471 0.387-0.471c2.91-3.548 6.109-6.815 9.559-9.763 3.475-2.95 5.527-7.671 5.076-11.798-0.124-1.407-0.598-2.755-1.374-3.906s-1.831-2.067-3.056-2.647c-1.843-0.9-3.65-1.081-5.34-0.412l-0 0c-1.681 0.667-2.933 2.022-3.753 3.172-0.825 1.156-1.253 2.16-1.27 2.201 0 0-0 0-0 0l-0.184 0.441-0.176-0.421c-0.003-0.008-0.006-0.015-0.008-0.020-0.006-0.016-0.013-0.033-0.021-0.051-0.016-0.037-0.037-0.086-0.065-0.145-0.055-0.119-0.136-0.285-0.242-0.486-0.212-0.4-0.527-0.943-0.944-1.525-0.825-1.154-2.080-2.514-3.754-3.19l0-0-0.008-0.003c-0.686-0.264-1.412-0.394-2.143-0.384z"></path>
</symbol>
<symbol id="icon-pinterest" viewBox="0 0 32 32">
<path d="M16 0.64c-8.483 0-15.36 6.877-15.36 15.36s6.877 15.36 15.36 15.36c8.483 0 15.36-6.877 15.36-15.36s-6.877-15.36-15.36-15.36zM17.051 19.64c-0.986-0.075-1.398-0.563-2.17-1.030-0.424 2.226-0.942 4.36-2.478 5.475-0.475-3.366 0.694-5.891 1.238-8.574-0.926-1.56 0.11-4.698 2.066-3.926 2.405 0.954-2.083 5.8 0.93 6.406 3.146 0.63 4.43-5.459 2.48-7.437-2.819-2.859-8.203-0.066-7.541 4.027 0.16 1 1.195 1.304 0.413 2.685-1.803-0.4-2.342-1.822-2.272-3.718 0.11-3.104 2.789-5.278 5.474-5.578 3.397-0.378 6.584 1.246 7.026 4.443 0.494 3.606-1.534 7.509-5.165 7.227z"></path>
</symbol>
<symbol id="icon-youtube" viewBox="0 0 32 32">
<path d="M18.565 15.733l-3.594-1.677c-0.314-0.146-0.571 0.018-0.571 0.365v3.158c0 0.347 0.258 0.51 0.571 0.365l3.592-1.677c0.315-0.147 0.315-0.387 0.002-0.534zM16 0.64c-8.483 0-15.36 6.877-15.36 15.36s6.877 15.36 15.36 15.36c8.483 0 15.36-6.877 15.36-15.36s-6.877-15.36-15.36-15.36zM16 22.24c-7.862 0-8-0.709-8-6.24s0.138-6.24 8-6.24c7.862 0 8 0.709 8 6.24s-0.138 6.24-8 6.24z"></path>
</symbol>
<symbol id="icon-instagram" viewBox="0 0 32 32">
<path d="M20.8 16c0 1.273-0.506 2.494-1.406 3.394s-2.121 1.406-3.394 1.406c-1.273 0-2.494-0.506-3.394-1.406s-1.406-2.121-1.406-3.394c0-0.274 0.029-0.541 0.078-0.8h-1.678v6.395c0 0.445 0.36 0.805 0.805 0.805h11.192c0.213-0 0.418-0.085 0.568-0.236s0.235-0.355 0.235-0.568v-6.395h-1.678c0.050 0.259 0.078 0.526 0.078 0.8v0zM16 19.2c0.42-0 0.837-0.083 1.225-0.244s0.741-0.397 1.038-0.694c0.297-0.297 0.533-0.65 0.694-1.039s0.243-0.805 0.243-1.225c-0-0.42-0.083-0.837-0.244-1.225s-0.397-0.741-0.694-1.038c-0.297-0.297-0.65-0.533-1.039-0.694s-0.805-0.243-1.225-0.243c-0.849 0-1.663 0.338-2.263 0.938s-0.937 1.415-0.937 2.264c0 0.849 0.338 1.663 0.938 2.263s1.415 0.937 2.264 0.937v0zM19.84 12.64h1.918c0.128 0 0.25-0.050 0.34-0.14s0.141-0.212 0.142-0.34v-1.918c0-0.128-0.051-0.25-0.141-0.341s-0.213-0.141-0.341-0.141h-1.918c-0.128 0-0.25 0.051-0.34 0.141s-0.141 0.213-0.141 0.341v1.918c0.002 0.264 0.218 0.48 0.482 0.48v0zM16 0.64c-4.074 0-7.981 1.618-10.861 4.499s-4.499 6.787-4.499 10.861 1.618 7.981 4.499 10.861c2.881 2.881 6.787 4.499 10.861 4.499 2.017 0 4.014-0.397 5.878-1.169s3.557-1.903 4.983-3.33c1.426-1.426 2.558-3.12 3.33-4.983s1.169-3.861 1.169-5.878-0.397-4.014-1.169-5.878c-0.772-1.864-1.903-3.557-3.33-4.983s-3.12-2.558-4.983-3.33c-1.864-0.772-3.861-1.169-5.878-1.169v0zM24 22.222c0 0.978-0.8 1.778-1.778 1.778h-12.445c-0.978 0-1.778-0.8-1.778-1.778v-12.445c0-0.978 0.8-1.778 1.778-1.778h12.445c0.978 0 1.778 0.8 1.778 1.778v12.445z"></path>
</symbol>
<symbol id="icon-twitter" viewBox="0 0 32 32">
<path d="M16 0.64c-8.483 0-15.36 6.877-15.36 15.36s6.877 15.36 15.36 15.36c8.483 0 15.36-6.877 15.36-15.36s-6.877-15.36-15.36-15.36zM22.248 13.222c0.006 0.131 0.008 0.262 0.008 0.39 0 4-3.042 8.61-8.606 8.61-1.644 0.003-3.254-0.47-4.637-1.36 0.235 0.029 0.477 0.040 0.722 0.040 1.418 0 2.722-0.482 3.757-1.294-0.631-0.012-1.242-0.221-1.749-0.598s-0.883-0.901-1.077-1.502c0.453 0.086 0.92 0.068 1.365-0.053-0.685-0.138-1.3-0.509-1.743-1.050s-0.684-1.218-0.684-1.916v-0.037c0.408 0.226 0.875 0.363 1.371 0.379-0.642-0.427-1.096-1.084-1.27-1.835s-0.054-1.541 0.334-2.207c0.76 0.934 1.708 1.699 2.782 2.244s2.251 0.858 3.453 0.92c-0.153-0.649-0.087-1.331 0.187-1.938s0.742-1.108 1.33-1.423c0.588-0.315 1.263-0.426 1.921-0.318s1.262 0.432 1.717 0.919c0.677-0.134 1.326-0.382 1.92-0.734-0.226 0.701-0.698 1.296-1.33 1.675 0.6-0.072 1.185-0.233 1.738-0.478-0.406 0.608-0.917 1.138-1.509 1.566v0z"></path>
</symbol>
<symbol id="icon-facebook" viewBox="0 0 32 32">
<path d="M15.754 0c-8.701 0-15.754 7.053-15.754 15.754s7.053 15.754 15.754 15.754c8.701 0 15.754-7.053 15.754-15.754s-7.053-15.754-15.754-15.754zM19.486 10.887h-2.368c-0.281 0-0.592 0.369-0.592 0.86v1.71h2.962l-0.448 2.439h-2.514v7.321h-2.795v-7.321h-2.535v-2.439h2.535v-1.434c0-2.058 1.428-3.73 3.387-3.73h2.368v2.594z"></path>
</symbol>
<symbol id="icon-account" viewBox="0 0 32 32">
<path stroke-linejoin="miter" stroke-linecap="butt" stroke-miterlimit="4" stroke-width="1" d="M17.004 0.852v-0.027h-0.5c-0.991 0-1.963 0.269-2.794 0.778s-1.485 1.236-1.873 2.096c-0.389 0.86-0.491 1.81-0.292 2.726s0.688 1.751 1.398 2.402c0.71 0.651 1.609 1.089 2.582 1.267s1.982 0.087 2.901-0.262c0.919-0.349 1.711-0.942 2.272-1.712s0.864-1.68 0.864-2.616v-0c-0.001-1.255-0.546-2.448-1.499-3.32-0.831-0.761-1.914-1.226-3.059-1.331zM16.504 10.5c-1.097 0.001-2.167-0.297-3.074-0.852s-1.606-1.339-2.017-2.248c-0.411-0.908-0.518-1.905-0.309-2.867s0.725-1.852 1.491-2.554c0.767-0.703 1.749-1.186 2.825-1.382s2.19-0.095 3.2 0.289c1.010 0.384 1.867 1.032 2.466 1.854s0.914 1.783 0.914 2.762c-0.002 1.31-0.57 2.575-1.596 3.516-1.028 0.942-2.429 1.479-3.9 1.481z"></path>
<path stroke-linejoin="miter" stroke-linecap="butt" stroke-miterlimit="4" stroke-width="1" d="M21.647 14.211l0.002 0.001c1.54 1.253 2.351 3.123 2.352 5.641-0.049 2.746-0.851 5.429-2.321 7.766-1.638 2.572-3.67 3.881-5.679 3.881-1.994 0-4.045-1.31-5.682-3.881-1.47-2.337-2.27-5.020-2.318-7.766 0.001-2.518 0.809-4.388 2.348-5.641 1.348-1.095 3.287-1.713 5.652-1.713 2.367 0 4.301 0.607 5.647 1.711zM16 12.807c-1.379 0-3.29 0.215-4.871 1.218-1.619 1.027-2.822 2.835-2.822 5.852 0 2.543 0.86 5.345 2.22 7.52 1.346 2.152 3.275 3.827 5.473 3.827s4.126-1.675 5.471-3.827c1.359-2.174 2.218-4.977 2.218-7.52 0-3.007-1.202-4.816-2.82-5.844-1.579-1.005-3.489-1.225-4.87-1.225z"></path>
</symbol>
<symbol id="icon-searh" viewBox="0 0 32 32">
<path stroke-linejoin="miter" stroke-linecap="butt" stroke-miterlimit="4" stroke-width="1" d="M22.501 18.5h-0.001c-2.082-0-4.1-0.722-5.709-2.043s-2.711-3.159-3.117-5.201-0.092-4.162 0.89-5.998c0.982-1.836 2.569-3.275 4.493-4.072s4.064-0.902 6.057-0.297c1.993 0.604 3.714 1.881 4.871 3.612s1.677 3.81 1.473 5.882c-0.204 2.072-1.12 4.009-2.593 5.482l-0.001 0.001c-0.834 0.838-1.825 1.502-2.917 1.955s-2.263 0.683-3.445 0.68zM22.5 0.857h-0.001c-1.421 0.002-2.819 0.353-4.072 1.024s-2.32 1.64-3.109 2.822c-0.788 1.182-1.274 2.54-1.412 3.954s0.074 2.841 0.618 4.153c0.544 1.313 1.404 2.471 2.502 3.372s2.402 1.518 3.796 1.795c1.394 0.277 2.834 0.207 4.194-0.205s2.597-1.153 3.602-2.157l0-0c1.208-1.21 2.030-2.751 2.363-4.428s0.161-3.415-0.494-4.994c-0.655-1.579-1.763-2.929-3.185-3.879s-3.093-1.457-4.803-1.457z"></path>
<path stroke-linejoin="miter" stroke-linecap="butt" stroke-miterlimit="4" stroke-width="1" d="M3.614 31.5v-0l-0.007 0c-0.226 0.001-0.45-0.043-0.659-0.13s-0.399-0.213-0.558-0.374l-0.001-0.001-1.382-1.383c-0.16-0.16-0.287-0.35-0.374-0.56s-0.131-0.434-0.131-0.66c0-0.227 0.045-0.451 0.131-0.66s0.214-0.399 0.374-0.56l0-0 9.166-9.167c0.16-0.16 0.35-0.288 0.56-0.374s0.434-0.131 0.66-0.131c0.226 0 0.451 0.045 0.66 0.131s0.399 0.214 0.56 0.374l0.002 0.002 1.381 1.369c0 0 0 0 0.001 0.001 0.16 0.16 0.287 0.35 0.374 0.559s0.131 0.434 0.131 0.66-0.045 0.451-0.131 0.66c-0.087 0.209-0.214 0.399-0.374 0.56l-0.001 0.001-9.151 9.179c-0.161 0.162-0.352 0.29-0.563 0.376s-0.437 0.13-0.665 0.127zM11.395 17.849v-0l-0.005 0c-0.364 0.001-0.713 0.145-0.971 0.401l-9.169 9.17c-0.257 0.259-0.401 0.608-0.401 0.972s0.144 0.714 0.401 0.973l0.002 0.002 1.386 1.383c0.258 0.257 0.607 0.401 0.971 0.401s0.713-0.144 0.971-0.401l0.001-0.001 9.168-9.168c0.257-0.259 0.4-0.608 0.4-0.973s-0.144-0.714-0.4-0.972l-1.386-1.386c-0.258-0.254-0.605-0.398-0.968-0.4z"></path>
</symbol>
<symbol id="icon-home" viewBox="0 0 32 32">
<path d="M27.5 32h-23v-18h23v18zM5.724 30.746h20.56v-15.488h-20.556l-0.003 15.488z"></path>
<path d="M29.466 15h-26.924c-0.21 0.002-0.416-0.062-0.59-0.183s-0.308-0.293-0.383-0.493c-0.075-0.2-0.089-0.419-0.039-0.627s0.161-0.396 0.319-0.538l14.040-12.887c0.195-0.18 0.45-0.277 0.712-0.271s0.514 0.113 0.701 0.301l12.887 12.888c0.147 0.146 0.248 0.333 0.289 0.538s0.023 0.417-0.055 0.611c-0.078 0.193-0.21 0.359-0.381 0.475s-0.371 0.178-0.576 0.177v0.011zM3.171 13.7h25.702l-12.291-12.302-13.411 12.302z"></path>
</symbol>
<symbol id="icon-planer" viewBox="0 0 32 32">
<path stroke-linejoin="miter" stroke-linecap="butt" stroke-miterlimit="4" stroke-width="1" d="M21.764 26.275l-0.009-0h-16.617c-0.033 0-0.067-0.013-0.094-0.041s-0.044-0.068-0.044-0.112v-21.549c0-0.044 0.017-0.084 0.044-0.112s0.061-0.041 0.094-0.041h21.724c0.033 0 0.067 0.013 0.094 0.041s0.044 0.068 0.044 0.112v16.341c-0.001 0.045-0.018 0.085-0.046 0.114-0 0-0 0-0 0l-5.102 5.215c-0.026 0.023-0.057 0.033-0.088 0.032zM5.273 25.47l-0 0.5h16.418l5.027-5.138v-16.107h-21.44l-0 0.5-0.004 20.245z"></path>
<path stroke-linejoin="miter" stroke-linecap="butt" stroke-miterlimit="4" stroke-width="1" d="M9.608 8.339l0.151-0.016 0.116-0.098c0.144-0.121 0.253-0.312 0.334-0.485 0.090-0.194 0.18-0.441 0.259-0.738 0.159-0.595 0.282-1.409 0.282-2.429 0-0.939-0.105-1.704-0.245-2.283-0.136-0.561-0.315-0.991-0.496-1.227l-0.394-0.514-0.398 0.511c-0.184 0.237-0.365 0.669-0.501 1.229-0.141 0.579-0.246 1.344-0.246 2.283 0 0.044-0.017 0.084-0.044 0.112s-0.061 0.041-0.094 0.041-0.067-0.013-0.094-0.041c-0.027-0.028-0.044-0.068-0.044-0.112 0-1.105 0.145-2.185 0.431-2.969 0.303-0.828 0.668-1.104 0.987-1.104s0.683 0.275 0.985 1.104c0.286 0.784 0.429 1.864 0.429 2.969s-0.145 2.184-0.432 2.967c-0.301 0.824-0.664 1.1-0.978 1.102-0.031-0.001-0.062-0.014-0.088-0.039-0.026-0.026-0.044-0.064-0.046-0.106s0.012-0.082 0.037-0.111c0.024-0.029 0.056-0.045 0.088-0.048z"></path>
<path stroke-linejoin="miter" stroke-linecap="butt" stroke-miterlimit="4" stroke-width="1" d="M15.106 2.29c-0.139 0.574-0.242 1.33-0.244 2.258-0.005 0.037-0.023 0.070-0.047 0.093-0.027 0.025-0.060 0.038-0.092 0.038s-0.066-0.012-0.092-0.038c-0.024-0.023-0.042-0.056-0.047-0.093 0.002-1.096 0.148-2.166 0.432-2.944 0.303-0.829 0.669-1.104 0.986-1.104s0.682 0.275 0.986 1.104c0.287 0.784 0.432 1.864 0.432 2.969s-0.145 2.183-0.432 2.967c-0.302 0.823-0.665 1.1-0.981 1.103-0.031-0.001-0.062-0.014-0.088-0.039-0.026-0.026-0.044-0.064-0.046-0.106s0.012-0.082 0.037-0.111c0.024-0.029 0.056-0.045 0.088-0.048l0.151-0.016 0.116-0.098c0.144-0.121 0.253-0.312 0.334-0.485 0.090-0.194 0.18-0.441 0.259-0.738 0.159-0.595 0.282-1.409 0.282-2.429 0-0.939-0.105-1.704-0.245-2.283-0.136-0.561-0.316-0.991-0.496-1.227l-0.394-0.514-0.398 0.511c-0.185 0.237-0.364 0.67-0.5 1.23z"></path>
<path stroke-linejoin="miter" stroke-linecap="butt" stroke-miterlimit="4" stroke-width="1" d="M21.495 2.29c-0.139 0.574-0.243 1.33-0.245 2.259-0.005 0.037-0.023 0.070-0.047 0.093-0.027 0.025-0.060 0.038-0.092 0.038s-0.066-0.012-0.092-0.038c-0.024-0.023-0.042-0.056-0.047-0.093 0.002-1.096 0.148-2.166 0.432-2.944 0.303-0.829 0.669-1.104 0.986-1.104s0.682 0.275 0.986 1.104c0.287 0.784 0.432 1.864 0.432 2.969s-0.145 2.183-0.432 2.967c-0.302 0.823-0.665 1.1-0.981 1.103-0.031-0.001-0.062-0.014-0.087-0.039-0.026-0.026-0.044-0.064-0.046-0.106s0.012-0.082 0.037-0.111c0.024-0.029 0.056-0.045 0.088-0.048l0.151-0.016 0.116-0.098c0.144-0.121 0.253-0.312 0.334-0.485 0.090-0.194 0.18-0.441 0.259-0.738 0.159-0.595 0.282-1.409 0.282-2.429 0-0.939-0.104-1.704-0.244-2.283-0.135-0.56-0.315-0.993-0.5-1.23l-0.398-0.511-0.394 0.514c-0.18 0.236-0.36 0.666-0.496 1.227z"></path>
<path stroke-linejoin="miter" stroke-linecap="butt" stroke-miterlimit="4" stroke-width="1" d="M22.388 10.603c-0.404-0-0.8-0.123-1.138-0.353s-0.603-0.56-0.76-0.947c-0.157-0.387-0.198-0.814-0.118-1.226s0.278-0.789 0.566-1.084c0.288-0.295 0.654-0.494 1.051-0.575s0.808-0.039 1.182 0.119c0.374 0.159 0.696 0.428 0.924 0.775s0.349 0.757 0.349 1.178c-0.001 0.564-0.22 1.102-0.607 1.497s-0.908 0.615-1.449 0.616zM22.388 6.686c-0.355 0-0.701 0.108-0.994 0.308s-0.52 0.484-0.653 0.813c-0.133 0.329-0.168 0.691-0.099 1.040s0.236 0.671 0.485 0.924c0.249 0.253 0.567 0.427 0.914 0.497s0.708 0.033 1.034-0.106c0.326-0.139 0.603-0.373 0.797-0.671s0.296-0.646 0.295-1.002c-0.001-0.475-0.187-0.933-0.519-1.271s-0.786-0.532-1.261-0.532z"></path>
<path stroke-linejoin="miter" stroke-linecap="butt" stroke-miterlimit="4" stroke-width="1" d="M15.999 10.603c-0.404-0-0.8-0.123-1.138-0.353s-0.603-0.56-0.76-0.947c-0.157-0.387-0.198-0.814-0.118-1.226s0.278-0.789 0.566-1.084c0.288-0.295 0.654-0.494 1.051-0.575s0.808-0.039 1.182 0.119c0.374 0.159 0.696 0.428 0.924 0.775s0.349 0.757 0.349 1.178c-0.001 0.564-0.22 1.102-0.607 1.497s-0.908 0.615-1.449 0.616zM16.001 6.686c-0.355-0.001-0.701 0.106-0.995 0.305s-0.521 0.483-0.655 0.812c-0.134 0.329-0.169 0.691-0.101 1.040s0.236 0.671 0.484 0.925c0.248 0.254 0.566 0.428 0.914 0.499s0.708 0.034 1.035-0.105 0.604-0.373 0.798-0.671c0.194-0.298 0.296-0.647 0.295-1.002-0.001-0.474-0.186-0.931-0.517-1.27s-0.784-0.532-1.257-0.534z"></path>
<path stroke-linejoin="miter" stroke-linecap="butt" stroke-miterlimit="4" stroke-width="1" d="M9.612 10.603c-0.404-0-0.8-0.123-1.138-0.353s-0.603-0.56-0.76-0.947c-0.157-0.387-0.198-0.814-0.118-1.226s0.278-0.789 0.566-1.084c0.288-0.295 0.654-0.494 1.051-0.575s0.808-0.039 1.182 0.119c0.374 0.159 0.696 0.428 0.924 0.775s0.349 0.757 0.349 1.178c-0.001 0.564-0.22 1.102-0.607 1.497s-0.908 0.615-1.449 0.616zM9.614 6.686c-0.355-0.001-0.701 0.106-0.995 0.305s-0.521 0.483-0.655 0.812c-0.134 0.329-0.169 0.691-0.101 1.040s0.236 0.671 0.484 0.925c0.248 0.254 0.566 0.428 0.914 0.499s0.708 0.034 1.035-0.105c0.327-0.139 0.604-0.373 0.798-0.671s0.296-0.647 0.295-1.002c-0.001-0.474-0.186-0.931-0.517-1.27s-0.783-0.532-1.257-0.534z"></path>
<path stroke-linejoin="miter" stroke-linecap="butt" stroke-miterlimit="4" stroke-width="1" d="M26.862 31.5h-21.724c-0.033 0-0.067-0.013-0.094-0.041s-0.044-0.068-0.044-0.111 0.017-0.084 0.044-0.111c0.027-0.027 0.061-0.041 0.094-0.041h21.724c0.033 0 0.067 0.013 0.094 0.041s0.044 0.068 0.044 0.111-0.017 0.084-0.044 0.111c-0.027 0.027-0.061 0.041-0.094 0.041z"></path>
<path stroke-linejoin="miter" stroke-linecap="butt" stroke-miterlimit="4" stroke-width="1" d="M26.862 28.891h-21.724c-0.033 0-0.067-0.013-0.094-0.041s-0.044-0.068-0.044-0.111 0.017-0.084 0.044-0.112c0.027-0.027 0.061-0.041 0.094-0.041h21.724c0.017 0 0.033 0.003 0.049 0.010s0.031 0.017 0.045 0.031c0.013 0.014 0.024 0.030 0.032 0.050s0.012 0.040 0.012 0.062c0 0.021-0.004 0.043-0.012 0.062s-0.019 0.036-0.032 0.050c-0.013 0.014-0.029 0.024-0.045 0.031s-0.033 0.010-0.049 0.010z"></path>
<path stroke-linejoin="miter" stroke-linecap="butt" stroke-miterlimit="4" stroke-width="1" d="M21.748 26.275l-0.004 0c-0.017 0-0.033-0.003-0.049-0.009-0.023-0.010-0.044-0.028-0.060-0.052s-0.026-0.056-0.026-0.089v-5.208c0-0.045 0.017-0.085 0.045-0.114s0.061-0.042 0.095-0.042h5.101c0.024 0.001 0.047 0.009 0.068 0.024 0.023 0.016 0.042 0.039 0.053 0.068s0.015 0.062 0.010 0.093c-0.005 0.030-0.018 0.057-0.036 0.078l-5.1 5.213c-0.028 0.026-0.063 0.039-0.097 0.039zM22.385 21.053h-0.5v4.717l4.62-4.717h-4.12z"></path>
</symbol>
<symbol id="icon-Group-6" viewBox="0 0 32 32">
<path d="M27.7 31.754l-8.059-8.055h-16.947c-0.346 0-0.677-0.137-0.922-0.382s-0.382-0.576-0.382-0.922v-21.095c0.001-0.345 0.139-0.676 0.383-0.919s0.575-0.38 0.92-0.38h26.614c0.345 0 0.675 0.137 0.919 0.381s0.381 0.574 0.381 0.919v21.113c0 0.345-0.137 0.676-0.381 0.92s-0.574 0.382-0.919 0.383h-1.609v8.038zM2.695 1.24c-0.016-0-0.032 0.006-0.044 0.017s-0.019 0.026-0.020 0.042v21.113c0 0.017 0.007 0.033 0.019 0.045s0.028 0.018 0.045 0.018h17.46l6.306 6.306v-6.323h2.849c0.016-0.001 0.032-0.008 0.044-0.019s0.019-0.027 0.019-0.044v-21.095c-0.001-0.016-0.008-0.031-0.020-0.042s-0.027-0.017-0.043-0.017h-26.614z"></path>
<path d="M8.747 14.969c-0.581 0-1.149-0.172-1.632-0.495s-0.859-0.781-1.082-1.318-0.28-1.127-0.167-1.697c0.113-0.57 0.393-1.093 0.804-1.504s0.934-0.69 1.504-0.804c0.57-0.113 1.16-0.055 1.697 0.167s0.995 0.599 1.318 1.082c0.323 0.483 0.495 1.051 0.495 1.632-0.001 0.779-0.311 1.525-0.861 2.076s-1.297 0.86-2.076 0.861zM8.747 10.335c-0.336 0-0.664 0.1-0.943 0.286s-0.497 0.451-0.625 0.761c-0.128 0.31-0.162 0.651-0.097 0.98s0.227 0.631 0.464 0.869c0.237 0.237 0.54 0.399 0.869 0.464s0.67 0.032 0.98-0.097c0.31-0.128 0.575-0.346 0.761-0.625s0.286-0.607 0.286-0.943c-0.001-0.45-0.18-0.881-0.498-1.199s-0.749-0.497-1.199-0.498z"></path>
<path d="M15.995 14.969c-0.581 0-1.149-0.172-1.632-0.495s-0.859-0.781-1.082-1.318-0.28-1.127-0.167-1.697c0.113-0.57 0.393-1.093 0.804-1.504s0.934-0.69 1.504-0.804c0.57-0.113 1.16-0.055 1.697 0.167s0.995 0.599 1.318 1.082c0.323 0.483 0.495 1.051 0.495 1.632-0.001 0.779-0.311 1.525-0.861 2.076s-1.297 0.86-2.076 0.861zM15.995 10.335c-0.336 0-0.664 0.1-0.943 0.286s-0.496 0.451-0.625 0.761-0.162 0.651-0.097 0.98c0.065 0.329 0.227 0.631 0.464 0.869s0.54 0.399 0.869 0.464c0.329 0.065 0.67 0.032 0.98-0.097s0.575-0.346 0.761-0.625 0.286-0.607 0.286-0.943c0-0.223-0.044-0.443-0.129-0.649s-0.21-0.393-0.368-0.55c-0.158-0.158-0.345-0.283-0.551-0.368s-0.426-0.129-0.649-0.129z"></path>
<path d="M23.256 14.969c-0.581 0.001-1.149-0.171-1.633-0.493s-0.86-0.781-1.083-1.317c-0.223-0.537-0.282-1.127-0.169-1.697s0.392-1.094 0.803-1.505c0.411-0.411 0.934-0.691 1.504-0.805s1.16-0.056 1.697 0.167c0.537 0.222 0.996 0.599 1.319 1.082s0.495 1.051 0.495 1.632c-0.001 0.778-0.31 1.524-0.86 2.074s-1.295 0.861-2.073 0.862zM23.256 10.335c-0.336 0-0.664 0.1-0.943 0.286s-0.497 0.451-0.625 0.761-0.162 0.651-0.097 0.98c0.066 0.329 0.227 0.631 0.464 0.869s0.54 0.399 0.869 0.464 0.67 0.032 0.98-0.097c0.31-0.128 0.575-0.346 0.762-0.625s0.286-0.607 0.286-0.943c-0.001-0.45-0.18-0.881-0.498-1.199s-0.749-0.497-1.199-0.498z"></path>
</symbol>
<symbol id="icon-Group-176" viewBox="0 0 32 32">
<path d="M21.744 8l-5.744 5.744-5.744-5.744-2.256 2.256 5.744 5.744-5.744 5.744 2.256 2.256 5.744-5.744 5.744 5.744 2.256-2.256-5.744-5.744 5.744-5.744-2.256-2.256z"></path>
</symbol>
</defs>
</svg>
